# xmcd
# 
# Track frame offsets:
#     150
#     24104
#     46958
#     72916
#     93165
#     116339
#     140151
#     160235
#     181659
#     202379
#     221148
#     249399
# 
# Disc length: 3555
# 
# Revision: 7
# Processed by: cddbd v1.5.2PL0 Copyright (c) Steve Scherf et al.
# Submitted via: fre:ac v1.0.31
# 
DISCID=a70de10c
DTITLE=Robbie Robertson - How To Become Clairvoyant
DYEAR=2011
DGENRE=Rock/Pop
TTITLE0=Straight Down The Line (Feat. Robert Randolph On Pedal Steel Guitar)
TTITLE1=When The Night Was Young (Feat. Angela Mccluskey On Vocal)
TTITLE2=He Don't Live Here No More (Feat. Eric Clapton)
TTITLE3=The Right Mistake (Feat. Eric Clapton On Guitar, Steve Winwood On Organ)
TTITLE4=This Is Where I Get Off (Feat. Eric Clapton On Guitar)
TTITLE5=Fear Of Falling (Feat. Eric Clapton, Steve Winwood On Organ)
TTITLE6=She's Not Mine (Feat. Eric Clapton, Steve Winwood On Organ)
TTITLE7=Madame X (Feat. Eric Clapton On Guitar, Trent Reznor For Additional Textures)
TTITLE8=Axman (Feat. Tom Morello On Guitar)
TTITLE9=Won't Be Back (Feat. Eric Clapton)
TTITLE10=How To Become Clairvoyant (Feat. Robert Randolph On Pedal Steel Guitar)
TTITLE11=Tango For Django (Feat. Marius De Vries On Keyboard)
EXTD=(P) and © 2011 Macro-biotic Records\n429 Records FTN17822\n YEAR: 2011
EXTT0=
EXTT1=
EXTT2=
EXTT3=
EXTT4=
EXTT5=
EXTT6=
EXTT7=
EXTT8=
EXTT9=
EXTT10=
EXTT11=
PLAYORDER=
